<svg height="512pt" viewBox="0 -18 512 512" width="512pt" xmlns="http://www.w3.org/2000/svg"><path d="m461.832031 0c-27.660156 0-50.167969 22.503906-50.167969 50.167969 0 15.933593 7.476563 30.144531 19.09375 39.339843l-66.96875 104.078126-72.699218-107.609376c9.292968-9.113281 15.074218-21.796874 15.074218-35.808593 0-27.664063-22.503906-50.167969-50.164062-50.167969l-21.335938 235.332031 21.335938 169.835938h223.898438v-80.167969l-10-17 10-13.5v-197.542969c18.757812-7.269531 32.101562-25.496093 32.101562-46.789062 0-27.664063-22.503906-50.167969-50.167969-50.167969zm0 0" fill="#fdae02"/><path d="m205.832031 50.167969c0 14.015625 5.78125 26.695312 15.078125 35.808593l-72.699218 107.609376-66.96875-104.078126c11.617187-9.195312 19.09375-23.40625 19.09375-39.339843 0-27.664063-22.507813-50.167969-50.167969-50.167969-27.664063 0-50.167969 22.503906-50.167969 50.167969 0 21.292969 13.34375 39.519531 32.101562 46.789062v198.042969l10 16.5-10 13.5v80.167969h223.898438v-405.167969c-27.660156 0-50.167969 22.503906-50.167969 50.167969zm0 0" fill="#fdcb02"/><path d="m197.308594 252.746094-28.546875 42.253906h-136.660157v30h152.59375l44.980469-66.574219zm0 0" fill="#fda502"/><path d="m314.691406 252.746094 28.546875 42.253906h136.660157v30h-152.59375l-44.980469-66.574219zm0 0" fill="#ff7300"/><path d="m256 165.871094-10.667969 80.128906 10.667969 90.132812 58.574219-83.5625zm0 0" fill="#f00000"/><path d="m197.308594 252.746094 58.691406 83.386718v-170.261718zm0 0" fill="#ff4b00"/><path d="m512 365.03125h-256l-10.667969 51.636719 10.667969 60.1875h256zm0 0" fill="#c3dce6"/><path d="m0 365.03125h256v111.824219h-256zm0 0" fill="#e1f0f5"/></svg>